<svg width="722" height="246" viewBox="0 0 722 246" fill="none" xmlns="http://www.w3.org/2000/svg">
<path d="M79.68 241.28H30.4V122.24H-1.92523e-05V81.28H30.4V31.68H79.68V81.28H110.08V122.24H79.68V241.28ZM180.547 245.44C146.627 245.44 125.507 225.6 125.507 194.24C125.507 164.8 146.307 146.56 184.707 143.68L229.507 140.16V137.6C229.507 121.92 219.907 113.6 202.307 113.6C181.507 113.6 170.307 121.6 170.307 136H129.347C129.347 99.84 159.107 76.16 204.867 76.16C251.267 76.16 277.507 102.08 277.507 147.84V241.28H233.987L230.787 220.16C225.667 234.88 204.547 245.44 180.547 245.44ZM197.827 208.96C216.707 208.96 229.827 199.68 229.827 181.44V172.8L204.867 175.04C183.427 176.96 175.747 181.76 175.747 192C175.747 203.52 182.787 208.96 197.827 208.96ZM362.132 241.28H312.852V2.67029e-05H362.132V241.28ZM448.382 241.28H399.102V2.67029e-05H448.382V241.28ZM559.592 245.44C511.272 245.44 476.712 210.24 476.712 160.96C476.712 111.04 510.312 76.16 558.632 76.16C608.872 76.16 640.232 109.12 640.232 161.28V173.76L524.072 174.4C526.952 195.52 538.792 205.44 560.552 205.44C579.112 205.44 592.232 198.72 595.752 187.2H640.872C635.112 222.72 603.432 245.44 559.592 245.44ZM558.952 116.16C539.432 116.16 528.552 124.8 524.712 144H591.272C591.272 127.04 578.792 116.16 558.952 116.16ZM693.735 56.32C678.055 56.32 665.575 43.84 665.575 28.16C665.575 12.48 678.055 0.320023 693.735 0.320023C709.095 0.320023 721.575 12.48 721.575 28.16C721.575 43.84 709.095 56.32 693.735 56.32ZM669.415 241.28V81.28H718.695V241.28H669.415Z" fill="white"/>
</svg>
