<svg width="1022" height="416" viewBox="0 0 1022 416" fill="none" xmlns="http://www.w3.org/2000/svg">
<path d="M409.84 320C393.413 320 380.827 315.947 372.08 307.84C363.333 299.733 358.96 286.613 358.96 268.48V190.4H335.6V153.6H358.96V120L402.16 115.52V153.6H437.36V190.4H402.16V266.24C402.16 276.48 406.64 281.6 415.6 281.6H433.52V320H409.84ZM523.265 324.16C508.118 324.16 494.252 320.32 481.665 312.64C469.292 304.747 459.372 294.293 451.905 281.28C444.652 268.053 441.025 253.44 441.025 237.44C441.025 225.493 443.158 214.293 447.425 203.84C451.692 193.173 457.558 183.893 465.025 176C472.492 167.893 481.132 161.6 490.945 157.12C500.972 152.427 511.745 150.08 523.265 150.08C537.772 150.08 549.078 152.853 557.185 158.4C565.292 163.733 571.585 170.88 576.065 179.84V153.6H618.945V320H577.025V292.8C572.545 302.187 566.145 309.76 557.825 315.52C549.718 321.28 538.198 324.16 523.265 324.16ZM530.305 285.12C539.905 285.12 548.118 282.987 554.945 278.72C561.985 274.24 567.425 268.373 571.265 261.12C575.105 253.867 577.025 245.973 577.025 237.44C577.025 228.693 575.105 220.693 571.265 213.44C567.425 206.187 561.985 200.32 554.945 195.84C548.118 191.36 539.905 189.12 530.305 189.12C521.132 189.12 513.025 191.36 505.985 195.84C499.158 200.107 493.825 205.867 489.985 213.12C486.145 220.373 484.225 228.373 484.225 237.12C484.225 245.44 486.145 253.333 489.985 260.8C493.825 268.053 499.158 273.92 505.985 278.4C513.025 282.88 521.132 285.12 530.305 285.12ZM644.613 320V86.4H687.813V320H644.613ZM713.363 320V86.4H756.563V320H713.363ZM861.793 324.16C844.726 324.16 829.686 320.213 816.673 312.32C803.659 304.427 793.526 293.973 786.273 280.96C779.233 267.733 775.713 253.12 775.713 237.12C775.713 221.12 779.446 206.507 786.913 193.28C794.379 179.84 804.513 169.173 817.313 161.28C830.326 153.387 845.153 149.44 861.793 149.44C878.433 149.44 893.046 153.387 905.633 161.28C918.433 169.173 928.353 179.84 935.393 193.28C942.646 206.507 946.273 221.12 946.273 237.12C946.273 239.467 946.166 241.92 945.953 244.48C945.739 247.04 945.419 249.707 944.993 252.48H820.513C822.859 262.293 827.553 270.293 834.593 276.48C841.846 282.667 850.913 285.76 861.793 285.76C871.179 285.76 879.286 283.627 886.113 279.36C893.153 275.093 898.593 269.76 902.433 263.36L936.033 288.64C929.419 299.093 919.499 307.627 906.273 314.24C893.046 320.853 878.219 324.16 861.793 324.16ZM861.153 186.56C850.913 186.56 842.166 189.653 834.913 195.84C827.659 202.027 822.859 210.133 820.513 220.16H902.753C900.406 210.987 895.499 203.093 888.033 196.48C880.779 189.867 871.819 186.56 861.153 186.56ZM986.678 139.84C979.424 139.84 973.238 137.387 968.118 132.48C963.211 127.36 960.758 121.28 960.758 114.24C960.758 107.413 963.211 101.547 968.118 96.64C973.238 91.52 979.424 88.96 986.678 88.96C994.144 88.96 1000.33 91.52 1005.24 96.64C1010.14 101.547 1012.6 107.413 1012.6 114.24C1012.6 121.493 1010.14 127.573 1005.24 132.48C1000.33 137.387 994.144 139.84 986.678 139.84ZM965.238 320V153.6H1008.44V320H965.238Z" fill="white"/>
<rect width="28.8382" height="257.981" transform="matrix(0.321156 -0.947026 -0.947026 -0.321156 244.315 281.163)" fill="white"/>
<rect width="29" height="182" transform="matrix(-1 0 0 1 66.3815 135)" fill="white"/>
<rect width="29" height="182" transform="matrix(-1 0 0 1 164 135)" fill="white"/>
<rect width="29" height="182" transform="matrix(-1 0 0 1 213 138)" fill="white"/>
<rect width="29" height="182" transform="matrix(-1 0 0 1 115 135)" fill="white"/>
</svg>
